<svg width="1024" height="1024" viewBox="0 0 1024 1024" fill="none" xmlns="http://www.w3.org/2000/svg">
  <rect width="1024" height="1024" rx="224" fill="#1F6F66"/>
  <path d="M238 170H708L836 298V782C836 824 802 858 760 858H238C196 858 162 824 162 782V246C162 204 196 170 238 170Z" fill="#FFFDF2"/>
  <path d="M708 170V282C708 315 735 342 768 342H836L708 170Z" fill="#E7DFC2"/>
  <path d="M274 328H430" stroke="#252724" stroke-width="52" stroke-linecap="round"/>
  <path d="M274 496H656" stroke="#252724" stroke-width="46" stroke-linecap="round"/>
  <circle cx="300" cy="646" r="28" fill="#1F6F66"/>
  <path d="M388 646H688" stroke="#252724" stroke-width="44" stroke-linecap="round"/>
  <rect x="270" y="724" width="64" height="64" rx="16" stroke="#1F6F66" stroke-width="26"/>
  <path d="M390 756H632" stroke="#252724" stroke-width="40" stroke-linecap="round"/>
</svg>
